<?xml version="1.0" encoding="UTF-8"?><svg xmlns="http://www.w3.org/2000/svg" version="1.1" viewBox="0 0 3632.55 762.46"><defs><style> .st0 { fill: none; } .st1 { stroke: #3b87c8; stroke-miterlimit: 10; stroke-width: .75px; } .st1, .st2 { fill: #fff; } .st3 { fill: #2c1b3e; } .st4 { fill: #3b87c8; } .st5 { fill: #07375b; } .st6 { fill: #276196; } </style></defs><path class="st3" d="M225.04,95.86s5.81-70.66-39.59-77.48c-45.42-6.81-110.11,7.98-154.1,51.63-43.97,43.66-41.77,88.76,7.13,117.88,0,0,79.27-106.88,186.56-92.04Z"/><path class="st4" d="M185.45,18.38c-45.42-6.81-110.11,7.98-154.1,51.63-43.97,43.66-41.77,88.76,7.13,117.88h.02C3.88,160.45,1.1,124.29,30.3,89.65l43.84,60.8-34.81-70.47c15.21-14.81,33.28-25.66,52.22-33.02l32.1,68.91-16.69-74.07c21.65-6.17,43.71-8.09,63.42-6.34l8.22,61.21.64-60.16c1.79.26,3.57.56,5.32.9,29.27,5.61,37.89,37.58,40.39,58.44.03,0,.07,0,.08,0,0,0,5.81-70.66-39.59-77.48Z"/><path class="st4" d="M719.19,511.42c-32.74,23.56-52.08,35.55-84.91,45.11-38.64,9.03-61.34,14.08-85.57-1.45-25.68-23.41-8.23-46.87,16.48-69.83-1.04.29-2.1.49-3.15.7,14.07-12.62,28.09-26.1,28.3-25.71,9.53-8.32,22.88-20.52,27.69-27.49,46.86-74.69-52.93-171.34-158.49-115.38-53.39,30.58-79.34,90.56-52.42,138.44,0,0,13.2,15.92,20.17,26.87-1.2-.56-2.41-1.07-3.58-1.77,15.96,24.93,28.11,52.85,13.14,77.7-22.07,25.78-50.1,36.97-70.32,22.35-31.43-31.9,2.25-65.64,2.89-98.82.64-22.45-3.39-36.55-10.58-44.99-1.86-2.18-3.91-4.01-6.17-5.48-1.13-.72-2.29-1.42-3.51-1.99,0,0-.05-.02-.07-.02-.3-.08-3.96-1.12-7.48-2.03l.07-.07c-1.53-.38-2.91-.7-3.83-.86-.64-.12-5.02-.63-13.31.18-11.7.65-19.35,12.98-20.03,25.2l23.92-11.41,2.12-2.1c3.51-1.06,6.69-.24,9.28.42,1.65.42,2.89,1.01,3.92,1.76.96.71,1.68,1.64,2.31,2.68,1.24,2.02,2.08,4.65,3.18,8.12,6.13,36.03-14.87,65.21-17.91,101.23-5.96,48.64,40.36,72.46,96.8,56.72-30.18,17.88-84.02,8.81-128.86,17.51-24.5,5.39-38.46,15.96-42.1,39.1-1.34,26.86,21.46,40.91,51.22,36.89,4.34-.18,8.95-2.39,7.47-4.74-1.55-2.46-11.3-.98-28.17-9.64-20.18-10.42-15.43-36.89-1.71-43.04,25-11.22,51.07,2.65,80.19,1.4-22.11,17.7-33.19,37.11-33.97,58.13-1.94,22.56,38.4,34.78,52.17,3.5,7.48-14.62,2.97-19.41-4.55-16.11-6.36,3.03-4.64,19.91-18.21,23.81-25.06-.29-7.93-35.19,12.76-49.98,43.74-35.01,58.9-15.31,89.94-53.56-10.67,35.29-70.82,52.22-64.25,97.8,5.38,33.1,26.01,46.72,52.23,40.82,25.73-7.53,29.91-47.92-5.71-61.71-17.34-7.11-29.4,17-18.03,32.29,8.31,8.37,18.25.54,10.12-5.7-7.62-4.07-8.8-17.93,4.44-14.56,17.43,5.38,24.83,37.08,2.41,40.12-27.91.24-30.52-31.63-22.98-47.72,19.06-30.79,56.61-41.8,62.04-75.64,20.23,29.23,53.05,34.72,81.65,54.44,24.73,20.25,18.42,53.29-30.39,51.27-15.98-1.65-21.36-8.71-20.61-17.68.54-6.55,2.67-14.67,14.62-19.67,11.48-2.65,17.21,6.33,13.6,13.92-5,7.96,7.99,22.74,14.89,3.48,5.19-17.92-3.8-31.76-23.43-33.14-26.06-1.83-55.25,38.55-19.67,64.64,14.66,8.09,23.19,8.82,33.72,7.87,13.3-1.19,27.9-6.6,40.47-20.23,52.61-66.38-67.17-78.15-80.79-140.98,28.76,24.32,69.11,33.62,112.99,44.62,22.44,6.13,28,20.04,26.9,37.03-2.46,24.67-7.31,40.89-1.19,63.26,6.51,16.88,25.53,27.87,41.7,26.63,44.55-5.19,44.64-46.56,15.81-68.68-16.95-12.45-26.17.98-10.32,6.54,19.75,6.94,18.84,25.14,13.73,35.91-5.74,12.82-43.25,14.21-45.18-8.08-.21-2.28-.35-4.15-.38-6.37-.25-18.63,6.16-35.73,8.92-58.38,3.13-30.74-20.22-48.05-56.33-58.88-11.71-3.16-23.42-6.33-35.12-9.49,24.24-1.32,48.2-6,71.83-14.57,30.84-8.58,65.55-38.98,79.49-42.93,7.96-2.23,14.32,5.33,5.1,19.54-3.5,5.4-7.22,13.81-14.25,15.83-9.1,2.63-24.82-9.51-20.9.18,14.25,35.18,53.3,3.49,56.92-18.12,10.29-26.67-14.61-47.95-39.19-35.02ZM558.16,368.88c14.73,0,26.66,11.94,26.66,26.66s-11.93,26.65-26.66,26.65-26.65-11.93-26.65-26.65,11.93-26.66,26.65-26.66ZM404.04,415.01c0-10.79,8.74-19.52,19.52-19.52s19.52,8.73,19.52,19.52-8.74,19.51-19.52,19.51-19.52-8.74-19.52-19.51Z"/><g><path class="st3" d="M1863.44,753.08c0,2.47-.86,4.4-2.59,5.8-1.73,1.4-3.66,2.1-5.8,2.1s-3.95-.91-5.43-2.71l-68.82-86.58-33.55,31.57v49.09c-.17,2.3-.99,4.15-2.47,5.55-1.48,1.4-3.29,2.1-5.43,2.1-2.3,0-4.15-.7-5.55-2.1-1.4-1.4-2.1-3.25-2.1-5.55v-157.38c0-2.3.74-4.15,2.22-5.55,1.48-1.4,3.37-2.1,5.67-2.1s4.15.7,5.55,2.1c1.4,1.4,2.1,3.25,2.1,5.55v89.54l99.66-94.23c1.48-1.64,3.29-2.47,5.43-2.47,1.97,0,3.66.74,5.06,2.22,1.4,1.48,2.1,3.13,2.1,4.93,0,1.97-.74,3.7-2.22,5.18l-64.63,60.43,69.07,87.32c1.15,1.65,1.73,3.37,1.73,5.18Z"/><path class="st3" d="M1893.78,612.85c-1.81-1.56-2.71-3.82-2.71-6.78v-2.47c0-2.96.94-5.22,2.84-6.78,1.89-1.56,4.48-2.34,7.77-2.34,6.57,0,9.87,3.04,9.87,9.13v2.47c0,2.96-.86,5.22-2.59,6.78-1.73,1.56-4.24,2.34-7.53,2.34s-5.84-.78-7.65-2.34ZM1906.73,757.89c-1.4,1.4-3.17,2.1-5.3,2.1s-3.91-.7-5.3-2.1c-1.4-1.4-2.1-3.16-2.1-5.3v-113.47c0-2.13.7-3.9,2.1-5.3,1.4-1.39,3.16-2.1,5.3-2.1s3.91.7,5.3,2.1c1.39,1.4,2.1,3.17,2.1,5.3v113.47c0,2.14-.7,3.91-2.1,5.3Z"/><path class="st3" d="M1971.97,648.25v82.64c0,6.25,1.15,10.48,3.45,12.7,2.3,2.22,5.34,3.33,9.13,3.33.99,0,2.22-.2,3.7-.62,1.48-.41,2.63-.62,3.45-.62,1.48,0,2.75.62,3.82,1.85,1.07,1.23,1.6,2.67,1.6,4.32,0,2.31-1.32,4.24-3.95,5.8-2.63,1.57-5.76,2.34-9.37,2.34-4.44,0-8.39-.41-11.84-1.23-3.45-.82-6.78-3.29-9.99-7.4-3.21-4.11-4.81-10.69-4.81-19.73v-83.38h-18.01c-1.97,0-3.66-.66-5.06-1.97-1.4-1.31-2.1-2.96-2.1-4.93s.7-3.62,2.1-4.93c1.4-1.31,3.08-1.97,5.06-1.97h18.01v-27.38c0-2.13.7-3.9,2.1-5.3,1.39-1.39,3.16-2.1,5.3-2.1s3.9.7,5.3,2.1c1.4,1.4,2.1,3.17,2.1,5.3v27.38h24.67c1.81,0,3.41.74,4.81,2.22,1.4,1.48,2.1,3.13,2.1,4.93,0,1.97-.66,3.58-1.97,4.81-1.32,1.23-2.96,1.85-4.93,1.85h-24.67Z"/><path class="st3" d="M2134.04,694.74c-1.48,1.4-3.21,2.1-5.18,2.1h-93.24c0,9.87,2.01,18.71,6.04,26.52,4.03,7.81,9.78,13.98,17.27,18.5,7.48,4.53,16.32,6.78,26.52,6.78,7.89,0,14.96-1.64,21.21-4.93,6.25-3.29,11.26-7.48,15.05-12.58,1.81-1.48,3.53-2.22,5.18-2.22s3.12.66,4.44,1.97c1.31,1.32,1.97,2.8,1.97,4.44,0,1.81-.83,3.54-2.47,5.18-5.26,6.41-11.88,11.68-19.86,15.79-7.98,4.11-16.4,6.17-25.28,6.17-12.67,0-23.85-2.71-33.55-8.14-9.7-5.43-17.27-13.03-22.69-22.82-5.43-9.78-8.14-21.09-8.14-33.92,0-13.48,2.67-25.28,8.02-35.4,5.34-10.11,12.46-17.84,21.34-23.19,8.88-5.34,18.33-8.02,28.37-8.02s19.12,2.3,27.75,6.91c8.63,4.61,15.66,11.35,21.09,20.23,5.43,8.88,8.22,19.41,8.39,31.57,0,1.97-.74,3.66-2.22,5.06ZM2052.51,655.15c-8.14,6.58-13.36,16.03-15.66,28.37h84.12v-1.97c-.82-7.4-3.29-13.85-7.4-19.36-4.11-5.51-9.25-9.7-15.42-12.58-6.17-2.88-12.54-4.32-19.12-4.32-9.54,0-18.38,3.29-26.52,9.87Z"/><path class="st3" d="M2256.38,639.37c8.88,5.59,15.83,13.36,20.84,23.31,5.01,9.95,7.52,21.17,7.52,33.67s-2.51,23.56-7.52,33.67c-5.02,10.11-11.92,18.05-20.72,23.8-8.8,5.76-18.62,8.63-29.48,8.63-9.37,0-18.05-2.34-26.02-7.03-7.98-4.69-14.43-10.89-19.36-18.62v16.28c0,2.14-.7,3.95-2.1,5.43-1.4,1.48-3.17,2.22-5.3,2.22s-3.91-.74-5.3-2.22c-1.4-1.48-2.1-3.29-2.1-5.43v-167.98c0-2.13.7-3.9,2.1-5.3,1.4-1.4,3.16-2.1,5.3-2.1s3.9.7,5.3,2.1c1.4,1.4,2.1,3.17,2.1,5.3v72.77c4.44-8.05,10.69-14.55,18.75-19.49,8.05-4.93,16.85-7.4,26.39-7.4,10.85,0,20.72,2.8,29.6,8.39ZM2248.62,741.74c6.82-4.6,12.17-10.89,16.03-18.87,3.86-7.97,5.8-16.81,5.8-26.52s-1.93-18.71-5.8-26.52c-3.87-7.81-9.21-13.94-16.03-18.38-6.83-4.44-14.52-6.66-23.06-6.66s-16.53,2.18-23.43,6.54c-6.91,4.36-12.25,10.48-16.03,18.38-3.79,7.89-5.67,16.77-5.67,26.64s1.93,18.79,5.8,26.76c3.86,7.98,9.21,14.23,16.03,18.75,6.82,4.53,14.59,6.78,23.31,6.78s16.24-2.3,23.06-6.91Z"/><path class="st3" d="M2423.63,730.39c-5.43,10.03-12.91,17.88-22.45,23.56-9.54,5.67-20.15,8.51-31.82,8.51s-22.29-2.84-31.82-8.51c-9.54-5.67-17.02-13.52-22.45-23.56-5.43-10.03-8.14-21.21-8.14-33.55s2.71-23.51,8.14-33.55c5.43-10.03,12.91-17.92,22.45-23.68,9.54-5.75,20.14-8.63,31.82-8.63s22.28,2.88,31.82,8.63c9.54,5.76,17.02,13.65,22.45,23.68,5.43,10.03,8.14,21.21,8.14,33.55s-2.71,23.52-8.14,33.55ZM2410.8,670.2c-4.11-7.89-9.83-14.1-17.14-18.62-7.32-4.52-15.42-6.78-24.3-6.78s-16.94,2.26-24.17,6.78c-7.24,4.53-12.95,10.73-17.14,18.62-4.19,7.89-6.29,16.77-6.29,26.64s2.1,18.5,6.29,26.39c4.19,7.89,9.91,14.1,17.14,18.62,7.23,4.53,15.29,6.78,24.17,6.78s16.98-2.22,24.3-6.66c7.32-4.44,13.03-10.61,17.14-18.5,4.11-7.89,6.17-16.77,6.17-26.64s-2.06-18.75-6.17-26.64Z"/><path class="st3" d="M2569.78,636.16c1.4,1.48,2.1,3.29,2.1,5.43v111c0,2.14-.7,3.91-2.1,5.3s-3.17,2.1-5.3,2.1-3.91-.7-5.3-2.1c-1.4-1.4-2.1-3.16-2.1-5.3v-16.53c-4.11,7.4-10.28,13.65-18.5,18.75-8.23,5.1-17.19,7.65-26.89,7.65-11.02,0-20.93-2.88-29.72-8.63-8.8-5.75-15.71-13.65-20.72-23.68-5.02-10.03-7.52-21.29-7.52-33.79s2.55-23.72,7.65-33.67c5.1-9.95,12.04-17.72,20.84-23.31,8.8-5.59,18.54-8.39,29.23-8.39,9.87,0,18.91,2.39,27.13,7.15,8.22,4.77,14.39,11.02,18.5,18.75v-15.29c0-2.13.7-3.95,2.1-5.43,1.4-1.48,3.17-2.22,5.3-2.22s3.9.74,5.3,2.22ZM2536.23,741.86c6.82-4.52,12.17-10.77,16.03-18.75,3.86-7.97,5.8-16.9,5.8-26.76s-1.94-18.25-5.8-26.15c-3.87-7.89-9.21-14.1-16.03-18.62-6.83-4.52-14.51-6.78-23.06-6.78s-16.24,2.22-23.06,6.66c-6.83,4.44-12.17,10.57-16.03,18.38-3.87,7.81-5.8,16.65-5.8,26.52s1.89,18.79,5.67,26.76c3.78,7.98,9.08,14.23,15.91,18.75,6.82,4.53,14.59,6.78,23.31,6.78s16.24-2.26,23.06-6.78Z"/><path class="st3" d="M2678.43,632.95c2.63,1.32,3.95,3.29,3.95,5.92,0,2.3-.66,4.15-1.97,5.55-1.32,1.4-2.88,2.1-4.69,2.1-.83,0-2.43-.41-4.81-1.23-2.39-.82-4.65-1.23-6.78-1.23-6.09,0-12.13,2.34-18.13,7.03-6,4.69-10.94,10.73-14.8,18.13-3.87,7.4-5.8,14.88-5.8,22.45v60.93c0,2.14-.7,3.91-2.1,5.3-1.4,1.4-3.17,2.1-5.3,2.1s-3.91-.7-5.3-2.1c-1.4-1.4-2.1-3.16-2.1-5.3v-110.51c0-2.13.7-3.9,2.1-5.3,1.4-1.4,3.16-2.1,5.3-2.1s3.9.7,5.3,2.1c1.4,1.4,2.1,3.17,2.1,5.3v21.71c3.78-9.37,9.5-17.14,17.14-23.31,7.65-6.17,16.65-9.33,27.01-9.5,3.29,0,6.25.66,8.88,1.97Z"/><path class="st3" d="M2807.82,579.55c1.4,1.4,2.1,3.17,2.1,5.3v167.74c0,2.14-.7,3.91-2.1,5.3s-3.17,2.1-5.3,2.1-3.91-.7-5.3-2.1c-1.4-1.4-2.1-3.16-2.1-5.3v-17.27c-4.11,7.57-10.24,13.98-18.38,19.24-8.14,5.26-17.14,7.89-27.01,7.89-10.85,0-20.68-2.84-29.48-8.51-8.8-5.67-15.75-13.52-20.84-23.56-5.1-10.03-7.65-21.29-7.65-33.79s2.55-23.52,7.65-33.55c5.1-10.03,12.04-17.88,20.84-23.56,8.8-5.67,18.54-8.51,29.23-8.51,9.7,0,18.66,2.43,26.89,7.28,8.22,4.85,14.47,11.14,18.75,18.87v-72.28c0-2.14.7-3.9,2.1-5.3,1.4-1.4,3.16-2.1,5.3-2.1s3.9.7,5.3,2.1ZM2774.27,741.98c6.82-4.44,12.17-10.65,16.03-18.62,3.86-7.97,5.8-16.9,5.8-26.76s-1.94-18.5-5.8-26.39c-3.87-7.89-9.21-14.1-16.03-18.62-6.83-4.52-14.51-6.78-23.06-6.78s-16.24,2.26-23.06,6.78c-6.83,4.53-12.17,10.73-16.03,18.62-3.87,7.89-5.8,16.69-5.8,26.39s1.93,18.75,5.8,26.64c3.86,7.89,9.21,14.1,16.03,18.62,6.82,4.53,14.51,6.78,23.06,6.78s16.24-2.22,23.06-6.66Z"/><path class="st3" d="M2934.85,756.54c-9.13-3.95-17.97-10.11-26.52-18.5-1.97-1.64-2.96-3.62-2.96-5.92,0-1.97.78-3.78,2.34-5.43,1.56-1.64,3.33-2.47,5.3-2.47s3.78.83,5.43,2.47c12.83,14.15,28.86,21.21,48.1,21.21,11.84,0,21.66-2.79,29.48-8.39,7.81-5.59,11.72-12.91,11.72-21.95,0-7.07-1.94-12.95-5.8-17.64-3.87-4.69-8.92-8.51-15.17-11.47-6.25-2.96-14.23-6-23.93-9.13-10.53-3.12-19.36-6.58-26.52-10.36-7.15-3.78-12.95-8.84-17.39-15.17-4.44-6.33-6.66-14.35-6.66-24.05,0-8.71,2.34-16.44,7.03-23.19,4.69-6.74,11.26-12.04,19.73-15.91,8.47-3.86,18.21-5.8,29.23-5.8,10.03,0,19.44,1.69,28.24,5.06,8.79,3.37,15.83,8.18,21.09,14.43,2.47,2.8,3.7,5.18,3.7,7.15,0,1.81-.82,3.5-2.47,5.06-1.65,1.56-3.45,2.34-5.43,2.34-1.65,0-3.05-.57-4.19-1.73-4.44-5.26-10.36-9.54-17.76-12.83-7.4-3.29-15.13-4.93-23.19-4.93-12.01,0-21.79,2.67-29.35,8.02-7.57,5.35-11.35,12.62-11.35,21.83s3.62,16.86,10.85,21.95c7.23,5.1,17.59,9.79,31.08,14.06,11.67,3.45,21.21,6.99,28.61,10.61,7.4,3.62,13.44,8.76,18.13,15.42,4.69,6.66,7.03,15.42,7.03,26.27,0,8.39-2.43,16-7.28,22.82-4.85,6.83-11.59,12.21-20.23,16.16-8.63,3.95-18.46,5.92-29.48,5.92-11.84,0-22.32-1.97-31.45-5.92Z"/><path class="st3" d="M3130.71,633.57c6.66,1.73,12,4.07,16.03,7.03,4.03,2.96,6.04,6.17,6.04,9.62,0,1.81-.62,3.45-1.85,4.93-1.23,1.48-2.76,2.22-4.56,2.22-1.65,0-3-.33-4.07-.99-1.07-.66-2.26-1.64-3.58-2.96-2.14-2.14-4.19-3.7-6.17-4.69-2.47-1.15-5.72-2.1-9.74-2.84-4.03-.74-8.35-1.11-12.95-1.11-9.05,0-17.31,2.3-24.79,6.91-7.48,4.61-13.36,10.85-17.64,18.75-4.28,7.89-6.41,16.61-6.41,26.15s2.05,18.75,6.17,26.64c4.11,7.89,9.82,14.1,17.14,18.62,7.32,4.53,15.66,6.78,25.04,6.78,5.92,0,10.65-.49,14.18-1.48,3.53-.99,7.03-2.38,10.48-4.19,1.15-.66,3.12-2.13,5.92-4.44,1.31-1.15,2.47-2.01,3.45-2.59.99-.57,2.05-.86,3.21-.86,1.97,0,3.53.62,4.69,1.85,1.15,1.23,1.73,2.84,1.73,4.81,0,2.8-1.97,5.8-5.92,9-3.95,3.21-9.37,5.96-16.28,8.26-6.91,2.3-14.55,3.45-22.94,3.45-12.01,0-22.69-2.84-32.07-8.51-9.37-5.67-16.65-13.52-21.83-23.56-5.18-10.03-7.77-21.29-7.77-33.79s2.63-22.98,7.89-32.93c5.26-9.95,12.66-17.88,22.2-23.8,9.54-5.92,20.47-8.88,32.81-8.88,7.73,0,14.92.86,21.58,2.59Z"/><path class="st3" d="M3271.92,646.89c7.23,9.29,10.85,21.26,10.85,35.89v69.81c0,2.14-.7,3.91-2.1,5.3-1.4,1.4-3.17,2.1-5.3,2.1s-3.91-.7-5.3-2.1c-1.4-1.4-2.1-3.16-2.1-5.3v-69.81c0-10.69-2.55-19.36-7.65-26.02-5.1-6.66-13.07-9.99-23.93-9.99-6.91,0-13.44,1.65-19.61,4.93-6.17,3.29-11.14,7.69-14.92,13.2-3.79,5.51-5.67,11.47-5.67,17.88v69.81c0,2.14-.7,3.91-2.1,5.3-1.4,1.4-3.17,2.1-5.3,2.1s-3.91-.7-5.3-2.1c-1.4-1.4-2.1-3.16-2.1-5.3v-167.74c0-2.14.7-3.9,2.1-5.3s3.16-2.1,5.3-2.1,3.9.7,5.3,2.1c1.4,1.4,2.1,3.17,2.1,5.3v72.28c4.44-7.07,10.61-12.87,18.5-17.39,7.89-4.52,15.95-6.78,24.17-6.78,14.8,0,25.82,4.65,33.05,13.94Z"/><path class="st3" d="M3429.79,730.39c-5.43,10.03-12.91,17.88-22.45,23.56-9.54,5.67-20.15,8.51-31.82,8.51s-22.29-2.84-31.82-8.51c-9.54-5.67-17.02-13.52-22.45-23.56-5.43-10.03-8.14-21.21-8.14-33.55s2.71-23.51,8.14-33.55c5.43-10.03,12.91-17.92,22.45-23.68,9.54-5.75,20.14-8.63,31.82-8.63s22.28,2.88,31.82,8.63c9.54,5.76,17.02,13.65,22.45,23.68,5.43,10.03,8.14,21.21,8.14,33.55s-2.71,23.52-8.14,33.55ZM3416.97,670.2c-4.11-7.89-9.83-14.1-17.14-18.62-7.32-4.52-15.42-6.78-24.3-6.78s-16.94,2.26-24.17,6.78c-7.24,4.53-12.95,10.73-17.14,18.62-4.19,7.89-6.29,16.77-6.29,26.64s2.1,18.5,6.29,26.39c4.19,7.89,9.91,14.1,17.14,18.62,7.23,4.53,15.29,6.78,24.17,6.78s16.98-2.22,24.3-6.66c7.32-4.44,13.03-10.61,17.14-18.5,4.11-7.89,6.17-16.77,6.17-26.64s-2.06-18.75-6.17-26.64Z"/><path class="st3" d="M3576.56,730.39c-5.43,10.03-12.91,17.88-22.45,23.56-9.54,5.67-20.15,8.51-31.82,8.51s-22.29-2.84-31.82-8.51c-9.54-5.67-17.02-13.52-22.45-23.56-5.43-10.03-8.14-21.21-8.14-33.55s2.71-23.51,8.14-33.55c5.43-10.03,12.91-17.92,22.45-23.68,9.54-5.75,20.14-8.63,31.82-8.63s22.28,2.88,31.82,8.63c9.54,5.76,17.02,13.65,22.45,23.68,5.43,10.03,8.14,21.21,8.14,33.55s-2.71,23.52-8.14,33.55ZM3563.73,670.2c-4.11-7.89-9.83-14.1-17.14-18.62-7.32-4.52-15.42-6.78-24.3-6.78s-16.94,2.26-24.17,6.78c-7.24,4.53-12.95,10.73-17.14,18.62-4.19,7.89-6.29,16.77-6.29,26.64s2.1,18.5,6.29,26.39c4.19,7.89,9.91,14.1,17.14,18.62,7.23,4.53,15.29,6.78,24.17,6.78s16.98-2.22,24.3-6.66c7.32-4.44,13.03-10.61,17.14-18.5,4.11-7.89,6.17-16.77,6.17-26.64s-2.06-18.75-6.17-26.64Z"/><path class="st3" d="M3629.22,757.89c-1.4,1.4-3.17,2.1-5.3,2.1s-3.91-.7-5.3-2.1c-1.4-1.4-2.1-3.16-2.1-5.3v-167.74c0-2.14.7-3.9,2.1-5.3,1.4-1.4,3.17-2.1,5.3-2.1s3.9.7,5.3,2.1c1.4,1.4,2.1,3.17,2.1,5.3v167.74c0,2.14-.7,3.91-2.1,5.3Z"/></g><g><path class="st3" d="M808.58,442.17l-173.71-363.87c-25.66-51.98,51.98-94.75,80.93-40.14l58.56,132.26,75.67,173.71,74.35-173.71,58.56-132.26c26.32-50.01,102.65-18.42,80.27,36.19l-167.79,367.82c-15.13,41.45-61.85,51.32-86.85,0Z"/><path class="st3" d="M1392.21,478.36c-121.73,5.26-248.06-75.67-248.06-236.88S1270.48,0,1392.21,0c115.15,5.92,235.56,85.54,235.56,241.48s-120.41,236.88-235.56,236.88ZM1384.97,85.54c-73.69,0-153.97,51.98-153.97,155.94s80.27,155.94,153.97,155.94,156.6-52.64,156.6-155.94-80.93-155.94-156.6-155.94Z"/><path class="st3" d="M1739.61,55.93c0-21.71,18.42-40.14,41.45-40.14,21.06,0,38.82,18.42,38.82,40.14v329.65h178.97c64.48,0,65.8,86.2,0,86.2h-217.79c-23.03,0-41.45-16.45-41.45-40.14V55.93Z"/><path class="st3" d="M2296.27,270.43l-62.51,69.09v92.12c0,54.61-86.85,55.27-86.85,0V55.93c0-55.93,86.85-57.9,86.85,0v167.13l190.16-196.08c23.03-21.71,46.06-16.45,62.51,0,18.42,17.77,18.42,40.8,0,58.56-38.82,46.06-84.22,86.85-126.33,132.91l153.97,186.21c39.48,54.61-44.74,94.09-71.06,51.98l-146.73-186.21Z"/><path class="st3" d="M2624.59,55.93c0-53.96,86.85-55.93,86.85,0v375.71c0,54.61-86.85,55.93-86.85,0V55.93Z"/><path class="st3" d="M2964.11,98.7h-115.15c-57.25,0-57.25-84.22,0-84.22h311.23c58.56,0,58.56,84.22,0,84.22h-109.23v332.29c0,57.25-86.85,58.56-86.85,0V98.7Z"/><path class="st3" d="M3338.5,471.78c-23.03,0-40.79-17.77-40.79-40.79V57.25c0-23.69,17.77-40.8,40.79-40.8h236.22c60.54,0,59.22,85.54,0,85.54h-189.5v98.7h165.81c58.56,0,58.56,86.2,0,86.2h-165.81v98.7h200.69c59.88,0,64.48,86.2,0,86.2h-247.4Z"/></g><path class="st0" d="M438.68,463.1c-1.68,1.19-3.33,2.26-4.96,3.17,1.51-.71,2.94-1.52,4.15-2.48.23-.18.53-.43.81-.69Z"/><path class="st2" d="M558.16,422.19c14.73,0,26.66-11.93,26.66-26.65s-11.93-26.66-26.66-26.66-26.65,11.94-26.65,26.66,11.93,26.65,26.65,26.65ZM567.03,395.4c4.84,0,8.77,3.94,8.77,8.8s-3.93,8.77-8.77,8.77-8.78-3.92-8.78-8.77,3.93-8.8,8.78-8.8Z"/><path class="st4" d="M567.03,412.96c4.84,0,8.77-3.92,8.77-8.77s-3.93-8.8-8.77-8.8-8.78,3.94-8.78,8.8,3.93,8.77,8.78,8.77Z"/><path class="st2" d="M423.56,434.52c10.79,0,19.52-8.74,19.52-19.51s-8.74-19.52-19.52-19.52-19.52,8.73-19.52,19.52,8.74,19.51,19.52,19.51ZM408.59,418.94c1-4.76,5.66-7.78,10.4-6.78,4.74.99,7.78,5.65,6.78,10.39-1,4.76-5.65,7.79-10.4,6.79-4.74-1-7.78-5.67-6.78-10.4Z"/><path class="st4" d="M415.37,429.34c4.75,1,9.4-2.03,10.4-6.79,1-4.74-2.04-9.4-6.78-10.39-4.74-1-9.4,2.02-10.4,6.78-1,4.73,2.04,9.4,6.78,10.4Z"/><path class="st0" d="M330.3,438.62c-.87.28-1.76.72-2.67,1.27l2.67-1.27Z"/><path class="st0" d="M299.87,483.03c4.87,8.55,8.13,17.23,5.88,26.32,2.35,1.13,4.53,1.49,6.2.65,5.86-3,3.5-18.98-.46-26.54-3.96-7.58-15.24-13.92-17.07-16.21,1.97,3.56,3.93,7.12,5.91,10.68,1.25,2.24.79,3.98-.46,5.1Z"/><path class="st0" d="M302.19,507.21c1.1-7.65-1.39-15.28-5.32-22.89-2.37.33-5.12-.5-6.49-2.76l-5.83-9.59c.85,2.79,1.26,13.75,5.22,21.32,2.29,4.38,7.39,10.29,12.42,13.92Z"/><polygon class="st6" points="304.32 462.54 304.32 462.54 304.32 462.54 304.32 462.54"/><path class="st3" d="M352.67,431.67c2.25,1.47,4.31,3.3,6.17,5.48,14.38-7.12,26.62-13.31,26.62-13.31l-4.56-9.35-5.17,2.46-3.24-6.65,2.4-1.15-23.18-47.44-6.82-4.3L224.62,97.82l116.86,260.82-.03,7.44,23.39,47.87,4.48-2.14,3.26,6.66-23.49,11.2s.07.02.07.02c1.22.58,2.38,1.27,3.51,1.99Z"/><path class="st5" d="M323.1,443.94l3.09-3.07c-1.02.8-2.04,1.81-3.09,3.07Z"/><path class="st5" d="M326.19,440.86c.48-.38.96-.67,1.44-.97l-.89.43-.55.54Z"/><path class="st4" d="M311.53,472.25c.71.56,1.44,1.13,2.28,1.55,17.71,9.04,21.72-9.4,13.9-11.12-1.42-.31-2.55-1.18-3.45-2.37-1.12-1.45-1.83-3.38-2.3-5.38-5.04,2.28-8.32,3.6-8.49,3.26l-9.15,4.36c.93,2.66,2.44,6.14,4.46,7.55.95.66,1.84,1.41,2.75,2.16Z"/><path class="st3" d="M313.46,458.18c.16.34,3.45-.97,8.49-3.26,6.17-2.79,14.99-7.02,24.12-11.49-.64-1.04-1.35-1.97-2.31-2.68-1.03-.75-2.27-1.34-3.92-1.76-2.65-.67-5.93-1.55-9.54-.37l-2.67,1.27c-.48.3-.96.59-1.44.97l-3.09,3.07c1.05-1.27,2.07-2.28,3.09-3.07l.55-.54-23.92,11.41-15.25,7.27-48.17-105.27-1.04.5-26.33-61.16,23.78,62.37,34.8,74.25-38.19-72.64-34.64-57.19,32.11,58.41-1.05.5,53.08,102.93-82.87,39.51c-.44-.89-.88-1.79-1.32-2.69l-1.91-3.97,2.31-1.1-23.39-47.87-5.92-4.61L37.67,188.94l128,254.19-.77,7.65,23.21,47.45c.57-.27,2.84-1.42,4.38-2.19l3.4,6.49c-1.53.78-4.25,2.22-5.05,2.6-2.89,1.37-1.46,2.72.04,5.76,1.07,2.2,1.21,2.48,2.28,4.66l91.39-43.58,5.83,9.59c1.37,2.26,4.12,3.08,6.49,2.76,3.93,7.62,6.42,15.25,5.32,22.89-5.03-3.63-10.14-9.54-12.42-13.92-3.96-7.57-4.38-18.53-5.22-21.32.66,4,.55,16.74,4.88,25.03,2.28,4.36,7.13,9.64,12.16,13.17-1.14,4.21-3.43,8.41-7.27,12.63,1.58-.32,3.17-.64,4.74-.96,2.74-3.27,4.61-6.47,5.79-9.64,3.4,1.82,6.65,2.56,8.96,1.38,6.28-3.21,5.08-20.3.99-28.83-.1-.21-.2-.4-.3-.61-4.34-8.28-17.15-14.05-20.08-16.89,1.82,2.3,13.1,8.64,17.07,16.21,3.95,7.56,6.31,23.54.46,26.54-1.66.84-3.84.47-6.2-.65,2.25-9.09-1.01-17.77-5.88-26.32,1.25-1.12,1.71-2.86.46-5.1-1.98-3.56-3.94-7.11-5.91-10.68l9.89-4.71,9.15-4.36Z"/><path class="st3" d="M821.23,720.12c-14.75-55.71-63.32-168.11-123.75-269.59-3.16-5.92-9.54-4.58-14.77-2.91-14.89,5.95-27.55,11.02-42.44,16.96-7.61,1.84-11.02,6.17-10.25,12.93,30.6,96.47,73.76,194.85,113.26,259.87,3.63,6.78,12.99,24.44,26.95,22.43,16.78-8.55,28.71-14.63,45.5-23.18,4.42-2.81,7.46-7.05,5.51-16.52Z"/><path class="st4" d="M738.9,543.46c-3.5,5.4-7.22,13.8-14.25,15.83-9.11,2.63-24.81-9.51-20.9.18,12.17,30.04,42.43,11.3,53.24-8.27-4.52-7.59-9.21-15.27-13.99-22.99,1.07,3.4.21,8.59-4.11,15.24Z"/><path class="st1" d="M502.87,448.98l-3.46,1.82-3.52-1.75c-22.37-17.08-40.69,4.52-56.52,16.08-.28.27-.57.53-.81.72-1.21.98-2.65,1.81-4.15,2.55-6.25,3.63-12.13,4.74-17.72-.06-2.67-2.42-5.06-5.38-6.69-7.57-3.26,3.73-3.07,10.28,13.59,20.93,30.38,19.43,75.76-10.04,76.43-10.47.68.43,46.05,29.9,76.43,10.47,14.71-9.42,16.58-15.59,14.57-19.51-4.35,3.92-7.9,7-9.49,8.36-21.19,17.18-44.05-46.47-78.66-21.57Z"/></svg>