<?xml version="1.0" encoding="UTF-8"?><svg xmlns="http://www.w3.org/2000/svg" version="1.1" viewBox="-49.4 -72.1 921.5 921.5"><defs><style> .st0 { fill: none; } .st1 { stroke: #3b87c8; stroke-miterlimit: 10; stroke-width: .75px; } .st1, .st2 { fill: #fff; } .st3 { fill: #2c1b3e; } .st4 { fill: #3b87c8; } .st5 { fill: #07375b; } .st6 { fill: #276196; } </style></defs><path class="st3" d="M225.04,95.86s5.81-70.66-39.59-77.48c-45.42-6.81-110.11,7.98-154.1,51.63-43.97,43.66-41.77,88.76,7.13,117.88,0,0,79.27-106.88,186.56-92.04Z"/><path class="st4" d="M185.45,18.38c-45.42-6.81-110.11,7.98-154.1,51.63-43.97,43.66-41.77,88.76,7.13,117.88h.02C3.88,160.45,1.1,124.29,30.3,89.65l43.84,60.8-34.81-70.47c15.21-14.81,33.28-25.66,52.22-33.02l32.1,68.91-16.69-74.07c21.65-6.17,43.71-8.09,63.42-6.34l8.22,61.21.64-60.16c1.79.26,3.57.56,5.32.9,29.27,5.61,37.89,37.58,40.39,58.44.03,0,.07,0,.08,0,0,0,5.81-70.66-39.59-77.48Z"/><path class="st4" d="M719.19,511.42c-32.74,23.56-52.08,35.55-84.91,45.11-38.64,9.03-61.34,14.08-85.57-1.45-25.68-23.41-8.23-46.87,16.48-69.83-1.04.29-2.1.49-3.15.7,14.07-12.62,28.09-26.1,28.3-25.71,9.53-8.32,22.88-20.52,27.69-27.49,46.86-74.69-52.93-171.34-158.49-115.38-53.39,30.58-79.34,90.56-52.42,138.44,0,0,13.2,15.92,20.17,26.87-1.2-.56-2.41-1.07-3.58-1.77,15.96,24.93,28.11,52.85,13.14,77.7-22.07,25.78-50.1,36.97-70.32,22.35-31.43-31.9,2.25-65.64,2.89-98.82.64-22.45-3.39-36.55-10.58-44.99-1.86-2.18-3.91-4.01-6.17-5.48-1.13-.72-2.29-1.42-3.51-1.99,0,0-.05-.02-.07-.02-.3-.08-3.96-1.12-7.48-2.03l.07-.07c-1.53-.38-2.91-.7-3.83-.86-.64-.12-5.02-.63-13.31.18-11.7.65-19.35,12.98-20.03,25.2l23.92-11.41,2.12-2.1c3.51-1.06,6.69-.24,9.28.42,1.65.42,2.89,1.01,3.92,1.76.96.71,1.68,1.64,2.31,2.68,1.24,2.02,2.08,4.65,3.18,8.12,6.13,36.03-14.87,65.21-17.91,101.23-5.96,48.64,40.36,72.46,96.8,56.72-30.18,17.88-84.02,8.81-128.86,17.51-24.5,5.39-38.46,15.96-42.1,39.1-1.34,26.86,21.46,40.91,51.22,36.89,4.34-.18,8.95-2.39,7.47-4.74-1.55-2.46-11.3-.98-28.17-9.64-20.18-10.42-15.43-36.89-1.71-43.04,25-11.22,51.07,2.65,80.19,1.4-22.11,17.7-33.19,37.11-33.97,58.13-1.94,22.56,38.4,34.78,52.17,3.5,7.48-14.62,2.97-19.41-4.55-16.11-6.36,3.03-4.64,19.91-18.21,23.81-25.06-.29-7.93-35.19,12.76-49.98,43.74-35.01,58.9-15.31,89.94-53.56-10.67,35.29-70.82,52.22-64.25,97.8,5.38,33.1,26.01,46.72,52.23,40.82,25.73-7.53,29.91-47.92-5.71-61.71-17.34-7.11-29.4,17-18.03,32.29,8.31,8.37,18.25.54,10.12-5.7-7.62-4.07-8.8-17.93,4.44-14.56,17.43,5.38,24.83,37.08,2.41,40.12-27.91.24-30.52-31.63-22.98-47.72,19.06-30.79,56.61-41.8,62.04-75.64,20.23,29.23,53.05,34.72,81.65,54.44,24.73,20.25,18.42,53.29-30.39,51.27-15.98-1.65-21.36-8.71-20.61-17.68.54-6.55,2.67-14.67,14.62-19.67,11.48-2.65,17.21,6.33,13.6,13.92-5,7.96,7.99,22.74,14.89,3.48,5.19-17.92-3.8-31.76-23.43-33.14-26.06-1.83-55.25,38.55-19.67,64.64,14.66,8.09,23.19,8.82,33.72,7.87,13.3-1.19,27.9-6.6,40.47-20.23,52.61-66.38-67.17-78.15-80.79-140.98,28.76,24.32,69.11,33.62,112.99,44.62,22.44,6.13,28,20.04,26.9,37.03-2.46,24.67-7.31,40.89-1.19,63.26,6.51,16.88,25.53,27.87,41.7,26.63,44.55-5.19,44.64-46.56,15.81-68.68-16.95-12.45-26.17.98-10.32,6.54,19.75,6.94,18.84,25.14,13.73,35.91-5.74,12.82-43.25,14.21-45.18-8.08-.21-2.28-.35-4.15-.38-6.37-.25-18.63,6.16-35.73,8.92-58.38,3.13-30.74-20.22-48.05-56.33-58.88-11.71-3.16-23.42-6.33-35.12-9.49,24.24-1.32,48.2-6,71.83-14.57,30.84-8.58,65.55-38.98,79.49-42.93,7.96-2.23,14.32,5.33,5.1,19.54-3.5,5.4-7.22,13.81-14.25,15.83-9.1,2.63-24.82-9.51-20.9.18,14.25,35.18,53.3,3.49,56.92-18.12,10.29-26.67-14.61-47.95-39.19-35.02ZM558.16,368.88c14.73,0,26.66,11.94,26.66,26.66s-11.93,26.65-26.66,26.65-26.65-11.93-26.65-26.65,11.93-26.66,26.65-26.66ZM404.04,415.01c0-10.79,8.74-19.52,19.52-19.52s19.52,8.73,19.52,19.52-8.74,19.51-19.52,19.51-19.52-8.74-19.52-19.51Z"/><path class="st0" d="M438.68,463.1c-1.68,1.19-3.33,2.26-4.96,3.17,1.51-.71,2.94-1.52,4.15-2.48.23-.18.53-.43.81-.69Z"/><path class="st2" d="M558.16,422.19c14.73,0,26.66-11.93,26.66-26.65s-11.93-26.66-26.66-26.66-26.65,11.94-26.65,26.66,11.93,26.65,26.65,26.65ZM567.03,395.4c4.84,0,8.77,3.94,8.77,8.8s-3.93,8.77-8.77,8.77-8.78-3.92-8.78-8.77,3.93-8.8,8.78-8.8Z"/><path class="st4" d="M567.03,412.96c4.84,0,8.77-3.92,8.77-8.77s-3.93-8.8-8.77-8.8-8.78,3.94-8.78,8.8,3.93,8.77,8.78,8.77Z"/><path class="st2" d="M423.56,434.52c10.79,0,19.52-8.74,19.52-19.51s-8.74-19.52-19.52-19.52-19.52,8.73-19.52,19.52,8.74,19.51,19.52,19.51ZM408.59,418.94c1-4.76,5.66-7.78,10.4-6.78,4.74.99,7.78,5.65,6.78,10.39-1,4.76-5.65,7.79-10.4,6.79-4.74-1-7.78-5.67-6.78-10.4Z"/><path class="st4" d="M415.37,429.34c4.75,1,9.4-2.03,10.4-6.79,1-4.74-2.04-9.4-6.78-10.39-4.74-1-9.4,2.02-10.4,6.78-1,4.73,2.04,9.4,6.78,10.4Z"/><path class="st0" d="M330.3,438.62c-.87.28-1.76.72-2.67,1.27l2.67-1.27Z"/><path class="st0" d="M299.87,483.03c4.87,8.55,8.13,17.23,5.88,26.32,2.35,1.13,4.53,1.49,6.2.65,5.86-3,3.5-18.98-.46-26.54-3.96-7.58-15.24-13.92-17.07-16.21,1.97,3.56,3.93,7.12,5.91,10.68,1.25,2.24.79,3.98-.46,5.1Z"/><path class="st0" d="M302.19,507.21c1.1-7.65-1.39-15.28-5.32-22.89-2.37.33-5.12-.5-6.49-2.76l-5.83-9.59c.85,2.79,1.26,13.75,5.22,21.32,2.29,4.38,7.39,10.29,12.42,13.92Z"/><polygon class="st6" points="304.32 462.54 304.32 462.54 304.32 462.54 304.32 462.54"/><path class="st3" d="M352.67,431.67c2.25,1.47,4.31,3.3,6.17,5.48,14.38-7.12,26.62-13.31,26.62-13.31l-4.56-9.35-5.17,2.46-3.24-6.65,2.4-1.15-23.18-47.44-6.82-4.3L224.62,97.82l116.86,260.82-.03,7.44,23.39,47.87,4.48-2.14,3.26,6.66-23.49,11.2s.07.02.07.02c1.22.58,2.38,1.27,3.51,1.99Z"/><path class="st5" d="M323.1,443.94l3.09-3.07c-1.02.8-2.04,1.81-3.09,3.07Z"/><path class="st5" d="M326.19,440.86c.48-.38.96-.67,1.44-.97l-.89.43-.55.54Z"/><path class="st4" d="M311.53,472.25c.71.56,1.44,1.13,2.28,1.55,17.71,9.04,21.72-9.4,13.9-11.12-1.42-.31-2.55-1.18-3.45-2.37-1.12-1.45-1.83-3.38-2.3-5.38-5.04,2.28-8.32,3.6-8.49,3.26l-9.15,4.36c.93,2.66,2.44,6.14,4.46,7.55.95.66,1.84,1.41,2.75,2.16Z"/><path class="st3" d="M313.46,458.18c.16.34,3.45-.97,8.49-3.26,6.17-2.79,14.99-7.02,24.12-11.49-.64-1.04-1.35-1.97-2.31-2.68-1.03-.75-2.27-1.34-3.92-1.76-2.65-.67-5.93-1.55-9.54-.37l-2.67,1.27c-.48.3-.96.59-1.44.97l-3.09,3.07c1.05-1.27,2.07-2.28,3.09-3.07l.55-.54-23.92,11.41-15.25,7.27-48.17-105.27-1.04.5-26.33-61.16,23.78,62.37,34.8,74.25-38.19-72.64-34.64-57.19,32.11,58.41-1.05.5,53.08,102.93-82.87,39.51c-.44-.89-.88-1.79-1.32-2.69l-1.91-3.97,2.31-1.1-23.39-47.87-5.92-4.61L37.67,188.94l128,254.19-.77,7.65,23.21,47.45c.57-.27,2.84-1.42,4.38-2.19l3.4,6.49c-1.53.78-4.25,2.22-5.05,2.6-2.89,1.37-1.46,2.72.04,5.76,1.07,2.2,1.21,2.48,2.28,4.66l91.39-43.58,5.83,9.59c1.37,2.26,4.12,3.08,6.49,2.76,3.93,7.62,6.42,15.25,5.32,22.89-5.03-3.63-10.14-9.54-12.42-13.92-3.96-7.57-4.38-18.53-5.22-21.32.66,4,.55,16.74,4.88,25.03,2.28,4.36,7.13,9.64,12.16,13.17-1.14,4.21-3.43,8.41-7.27,12.63,1.58-.32,3.17-.64,4.74-.96,2.74-3.27,4.61-6.47,5.79-9.64,3.4,1.82,6.65,2.56,8.96,1.38,6.28-3.21,5.08-20.3.99-28.83-.1-.21-.2-.4-.3-.61-4.34-8.28-17.15-14.05-20.08-16.89,1.82,2.3,13.1,8.64,17.07,16.21,3.95,7.56,6.31,23.54.46,26.54-1.66.84-3.84.47-6.2-.65,2.25-9.09-1.01-17.77-5.88-26.32,1.25-1.12,1.71-2.86.46-5.1-1.98-3.56-3.94-7.11-5.91-10.68l9.89-4.71,9.15-4.36Z"/><path class="st3" d="M821.23,720.12c-14.75-55.71-63.32-168.11-123.75-269.59-3.16-5.92-9.54-4.58-14.77-2.91-14.89,5.95-27.55,11.02-42.44,16.96-7.61,1.84-11.02,6.17-10.25,12.93,30.6,96.47,73.76,194.85,113.26,259.87,3.63,6.78,12.99,24.44,26.95,22.43,16.78-8.55,28.71-14.63,45.5-23.18,4.42-2.81,7.46-7.05,5.51-16.52Z"/><path class="st4" d="M738.9,543.46c-3.5,5.4-7.22,13.8-14.25,15.83-9.11,2.63-24.81-9.51-20.9.18,12.17,30.04,42.43,11.3,53.24-8.27-4.52-7.59-9.21-15.27-13.99-22.99,1.07,3.4.21,8.59-4.11,15.24Z"/><path class="st1" d="M502.87,448.98l-3.46,1.82-3.52-1.75c-22.37-17.08-40.69,4.52-56.52,16.08-.28.27-.57.53-.81.72-1.21.98-2.65,1.81-4.15,2.55-6.25,3.63-12.13,4.74-17.72-.06-2.67-2.42-5.06-5.38-6.69-7.57-3.26,3.73-3.07,10.28,13.59,20.93,30.38,19.43,75.76-10.04,76.43-10.47.68.43,46.05,29.9,76.43,10.47,14.71-9.42,16.58-15.59,14.57-19.51-4.35,3.92-7.9,7-9.49,8.36-21.19,17.18-44.05-46.47-78.66-21.57Z"/></svg>